<?xml version="1.0" encoding="utf-8"?>
<!-- Generator: Adobe Illustrator 28.1.0, SVG Export Plug-In . SVG Version: 6.00 Build 0)  -->
<svg version="1.1" id="Layer_1" xmlns="http://www.w3.org/2000/svg" xmlns:xlink="http://www.w3.org/1999/xlink" x="0px" y="0px"
	 viewBox="0 0 640 320" style="enable-background:new 0 0 640 320;" xml:space="preserve">
<style type="text/css">
	.st0{fill:#CFCDCD;}
	.st1{opacity:0.4021;fill:url(#rect6709_00000158727471461979725100000008055297177479191995_);enable-background:new    ;}
	.st2{opacity:0.4021;fill:url(#path6711_00000043457656759250510490000011183886248160666784_);enable-background:new    ;}
	.st3{opacity:0.4021;fill:url(#path6713_00000018947554784588209530000002819177710364123284_);enable-background:new    ;}
	.st4{fill:url(#rect3115_00000011742470190102185370000005091415236666736512_);stroke:#9F6928;stroke-width:0.7377;}
	
		.st5{opacity:0.481;fill:none;stroke:url(#rect4220_00000074434429024466794230000011687829399716026804_);stroke-width:0.7377;enable-background:new    ;}
	
		.st6{fill-rule:evenodd;clip-rule:evenodd;fill:url(#path4162_00000166642482679365807240000005560094322901532343_);stroke:url(#path4162_00000060739649057273658530000009523821364703113362_);stroke-width:0.7377;}
	.st7{fill:#1B92D0;}
	
		.st8{fill:url(#path4164_00000005977829129429066610000015504595556772450995_);stroke:#9F6928;stroke-width:0.7377;stroke-linecap:round;stroke-linejoin:round;}
	
		.st9{fill:url(#path4178_00000082364515894818715570000011771987477285395381_);stroke:#9F6928;stroke-width:0.7377;stroke-linecap:round;stroke-linejoin:round;}
	.st10{fill:#F6E7CF;stroke:#9F6928;stroke-width:0.7377;stroke-linecap:round;stroke-linejoin:round;}
	.st11{fill:none;stroke:#F3E2C9;stroke-width:0.7377;}
	
		.st12{opacity:0.8798;fill:none;stroke:url(#path4966_00000091719388126246639960000007423029620975390860_);stroke-width:0.7377;stroke-linecap:round;stroke-linejoin:round;enable-background:new    ;}
	.st13{opacity:0.6;fill:url(#SVGID_1_);}
</style>
<rect x="0" y="0" class="st0" width="640" height="320"/>
<g id="layer1">
	<g id="g6707" transform="matrix(.015532 0 0 .015394 38.064 39.664)">
		
			<linearGradient id="rect6709_00000047059293941830647290000013551123104405271426_" gradientUnits="userSpaceOnUse" x1="463886.75" y1="-431820.2812" x2="463886.75" y2="-433535.7188" gradientTransform="matrix(4.309198e-02 0 0 -3.032156e-02 -1724.9863 -253.7821)">
			<stop  offset="0" style="stop-color:#000000;stop-opacity:0"/>
			<stop  offset="0.5" style="stop-color:#000000"/>
			<stop  offset="1" style="stop-color:#000000;stop-opacity:0"/>
		</linearGradient>
		
			<rect id="rect6709" x="13533.6" y="12839.7" style="opacity:0.4021;fill:url(#rect6709_00000047059293941830647290000013551123104405271426_);enable-background:new    ;" width="9462.3" height="3378.9"/>
		
			<radialGradient id="path6711_00000064323106626973012830000014870219899739279233_" cx="575072" cy="-486882.5625" r="827.4255" gradientTransform="matrix(4.309198e-02 0 0 -3.032156e-02 -1724.3864 -253.7821)" gradientUnits="userSpaceOnUse">
			<stop  offset="0" style="stop-color:#000000"/>
			<stop  offset="1" style="stop-color:#000000;stop-opacity:0"/>
		</radialGradient>
		
			<path id="path6711" style="opacity:0.4021;fill:url(#path6711_00000064323106626973012830000014870219899739279233_);enable-background:new    ;" d="
			M22996.6,12839.8v3378.7c1009.2,6.4,2439.8-757,2439.8-1689.6S24310.1,12839.8,22996.6,12839.8z"/>
		
			<radialGradient id="path6713_00000031905362280262331250000007808498638289025186_" cx="-310958.9688" cy="-486882.5625" r="827.4255" gradientTransform="matrix(-4.309198e-02 0 0 -3.032156e-02 74.3129 -253.7821)" gradientUnits="userSpaceOnUse">
			<stop  offset="0" style="stop-color:#000000"/>
			<stop  offset="1" style="stop-color:#000000;stop-opacity:0"/>
		</radialGradient>
		
			<path id="path6713" style="opacity:0.4021;fill:url(#path6713_00000031905362280262331250000007808498638289025186_);enable-background:new    ;" d="
			M13533.6,12839.8v3378.7c-1009.2,6.4-2439.8-757-2439.8-1689.6S12220.1,12839.8,13533.6,12839.8z"/>
	</g>
	
		<linearGradient id="rect3115_00000016053757420435044970000018282072264716757436_" gradientUnits="userSpaceOnUse" x1="423.8239" y1="6.6914" x2="423.8239" y2="87.3573" gradientTransform="matrix(0.7377 0 0 -0.7377 6.8994 251.3477)">
		<stop  offset="0" style="stop-color:#E9B96E"/>
		<stop  offset="1" style="stop-color:#B77B2A"/>
	</linearGradient>
	
		<path id="rect3115" style="fill:url(#rect3115_00000016053757420435044970000018282072264716757436_);stroke:#9F6928;stroke-width:0.7377;" d="
		M248.9,148.8h141.4c7,0,12.6,5.6,12.6,12.5v95.5c0,6.9-5.7,12.5-12.6,12.5H248.9c-7,0-12.6-5.6-12.6-12.5v-95.5
		C236.2,154.4,241.9,148.8,248.9,148.8z"/>
	
		<linearGradient id="rect4220_00000178186204579930129430000005460892111081488287_" gradientUnits="userSpaceOnUse" x1="402.0444" y1="109.7873" x2="480.2761" y2="-80.2989" gradientTransform="matrix(0.7377 0 0 -0.7377 6.8994 251.3477)">
		<stop  offset="0" style="stop-color:#FFFFFF"/>
		<stop  offset="1" style="stop-color:#FFFFFF;stop-opacity:0.6864"/>
	</linearGradient>
	
		<path id="rect4220" style="opacity:0.481;fill:none;stroke:url(#rect4220_00000178186204579930129430000005460892111081488287_);stroke-width:0.7377;enable-background:new    ;" d="
		M248.3,153.9h141.9c3.7,0,6.7,3,6.7,6.7V257c0,3.7-3,6.7-6.7,6.7H248.3c-3.7,0-6.7-3-6.7-6.7v-96.4
		C241.6,156.9,244.6,153.9,248.3,153.9z"/>
	
		<linearGradient id="path4162_00000045611821799721637990000012848692964508184194_" gradientUnits="userSpaceOnUse" x1="372.2448" y1="160.6588" x2="499.7068" y2="160.6588" gradientTransform="matrix(0.7377 0 0 -0.7666 6.8994 260.5978)">
		<stop  offset="0" style="stop-color:#A26E29"/>
		<stop  offset="1" style="stop-color:#D58F29"/>
	</linearGradient>
	
		<linearGradient id="path4162_00000092436313253079085830000011009083217275668414_" gradientUnits="userSpaceOnUse" x1="421.9209" y1="176.2865" x2="422.9923" y2="135.6144" gradientTransform="matrix(0.7377 0 0 -0.7377 6.8994 251.3477)">
		<stop  offset="0" style="stop-color:#9F6928"/>
		<stop  offset="1" style="stop-color:#9F6928;stop-opacity:0"/>
	</linearGradient>
	
		<path id="path4162" style="fill-rule:evenodd;clip-rule:evenodd;fill:url(#path4162_00000045611821799721637990000012848692964508184194_);stroke:url(#path4162_00000092436313253079085830000011009083217275668414_);stroke-width:0.7377;" d="
		M243.1,155.4l26.3-35.5l97.9-0.5l27.2,35.3L243.1,155.4L243.1,155.4z"/>
	<path class="st7" d="M320,30.7c-5.7,13.9-9.1,22.9-15.4,36.4c3.9,4.1,8.6,8.9,16.3,14.2c-8.3-3.4-13.9-6.8-18.1-10.4
		c-8.1,16.8-20.7,40.8-46.3,86.8c20.1-11.6,35.8-18.8,50.3-21.5c-0.6-2.7-1-5.6-1-8.6l0-0.6c0.3-12.9,7-22.8,15-22.1
		c8,0.7,14.1,11.7,13.8,24.6c-0.1,2.4-0.3,4.8-0.8,6.9c14.4,2.8,29.8,10,49.7,21.4c-3.9-7.2-7.4-13.7-10.8-19.9
		c-5.3-4.1-10.7-9.4-21.9-15.1c7.7,2,13.2,4.3,17.5,6.9C334.4,66.4,331.6,58,320,30.7L320,30.7L320,30.7z"/>
	
		<linearGradient id="path4164_00000003080316249471033560000000979001013966374536_" gradientUnits="userSpaceOnUse" x1="427.1649" y1="67.7751" x2="418.2506" y2="128.1756" gradientTransform="matrix(0.7377 0 0 -0.7276 6.8994 248.3492)">
		<stop  offset="0" style="stop-color:#E8B86D"/>
		<stop  offset="1" style="stop-color:#F0D09E"/>
	</linearGradient>
	
		<path id="path4164" style="fill:url(#path4164_00000003080316249471033560000000979001013966374536_);stroke:#9F6928;stroke-width:0.7377;stroke-linecap:round;stroke-linejoin:round;" d="
		M396.8,154.3l27.1,37.5H218l24.3-37.5L396.8,154.3L396.8,154.3z"/>
	
		<linearGradient id="path4178_00000002379465029114936530000010794840289343832235_" gradientUnits="userSpaceOnUse" x1="514.3409" y1="140.4041" x2="590.4649" y2="136.1236" gradientTransform="matrix(0.7377 0 0 -0.7377 6.8994 251.3477)">
		<stop  offset="0" style="stop-color:#DC9427"/>
		<stop  offset="1" style="stop-color:#A26E29"/>
	</linearGradient>
	
		<path id="path4178" style="fill:url(#path4178_00000002379465029114936530000010794840289343832235_);stroke:#9F6928;stroke-width:0.7377;stroke-linecap:round;stroke-linejoin:round;" d="
		M368.5,119.3l24.4,36.1l47.1,22.8l-42.3-46.4C397.7,131.8,368.5,119.3,368.5,119.3z"/>
	<path id="path4180" class="st10" d="M268.3,119.8l-20.7,35L200,177.7l42.3-46.4L268.3,119.8L268.3,119.8z"/>
	<path id="path4954" class="st11" d="M390.3,154.9l23.2,31.6H226.8l21.6-32.2L390.3,154.9L390.3,154.9z"/>
	
		<linearGradient id="path4966_00000103225486063558521260000006524526994897454978_" gradientUnits="userSpaceOnUse" x1="469.0546" y1="146.666" x2="383.659" y2="154.3382" gradientTransform="matrix(0.7377 0 0 -0.7377 6.8994 251.3477)">
		<stop  offset="0" style="stop-color:#F9EFDF"/>
		<stop  offset="1" style="stop-color:#EFCE98"/>
	</linearGradient>
	
		<path id="path4966" style="opacity:0.8798;fill:none;stroke:url(#path4966_00000103225486063558521260000006524526994897454978_);stroke-width:0.7377;stroke-linecap:round;stroke-linejoin:round;enable-background:new    ;" d="
		M247.7,154.5l17.6-30.1L372,124l20,30.5L247.7,154.5L247.7,154.5z"/>
</g>
<linearGradient id="SVGID_1_" gradientUnits="userSpaceOnUse" x1="320" y1="247.6637" x2="320" y2="208.9899">
	<stop  offset="0" style="stop-color:#2483C5"/>
	<stop  offset="1" style="stop-color:#2483C5;stop-opacity:0"/>
</linearGradient>
<path class="st13" d="M285.2,209.9h8.5v36.6h-8.5v-3.8c-3.7,4.3-8.3,4.9-11,4.9c-11.3,0-17.7-9.4-17.7-19.4
	c0-11.9,8.2-19.2,17.8-19.2c2.7,0,7.4,0.7,10.9,5.2V209.9z M265.2,228.4c0,6.4,4,11.6,10.2,11.6c5.4,0,10.3-3.9,10.3-11.5
	c0-8-4.9-11.8-10.3-11.8C269.1,216.6,265.2,221.9,265.2,228.4z M303.8,209.9h8.5v3.3c1-1.1,2.3-2.3,3.6-3c1.6-1,3.3-1.2,5.2-1.2
	c2.1,0,4.3,0.3,6.7,1.8l-3.5,7.7c-1.9-1.2-3.5-1.3-4.3-1.3c-1.8,0-3.6,0.3-5.3,2c-2.3,2.5-2.3,6-2.3,8.4v18.9h-8.5V209.9
	L303.8,209.9z M333.3,209.9h8.5v3.4c2.9-3.5,6.3-4.3,9-4.3c3.8,0,7.4,1.8,9.5,5.4c3-4.3,7.7-5.4,10.9-5.4c4.4,0,8.3,2.1,10.4,5.7
	c0.7,1.2,1.9,3.9,1.9,9.2v22.6H375v-20.2c0-4.1-0.4-5.7-0.8-6.5c-0.5-1.4-1.8-3.2-4.9-3.2c-2.1,0-3.9,1.1-5.1,2.7
	c-1.5,2.1-1.6,5.2-1.6,8.3v18.9h-8.5v-20.2c0-4.1-0.4-5.7-0.8-6.5c-0.5-1.4-1.8-3.2-4.9-3.2c-2.1,0-3.9,1.1-5.1,2.7
	c-1.5,2.1-1.6,5.2-1.6,8.3v18.9h-8.5V209.9z"/>
</svg>
