<?xml version="1.0" encoding="utf-8"?>
<!-- Generator: Adobe Illustrator 28.1.0, SVG Export Plug-In . SVG Version: 6.00 Build 0)  -->
<svg version="1.1" id="Layer_1" xmlns="http://www.w3.org/2000/svg" xmlns:xlink="http://www.w3.org/1999/xlink" x="0px" y="0px"
	 viewBox="0 0 512 512" style="enable-background:new 0 0 512 512;" xml:space="preserve">
<style type="text/css">
	.st0{fill:#CFCDCD;}
	.st1{opacity:0.4021;fill:url(#rect6709_00000174595109087186598650000007829094385151514016_);enable-background:new    ;}
	.st2{opacity:0.4021;fill:url(#path6711_00000157282550673674340170000009533939319723089065_);enable-background:new    ;}
	.st3{opacity:0.4021;fill:url(#path6713_00000170996636900951311150000007632189025332885640_);enable-background:new    ;}
	.st4{fill:url(#rect3115_00000176743512965767312660000009047862127252298135_);stroke:#A06928;stroke-width:0.7377;}
	
		.st5{opacity:0.481;fill:none;stroke:url(#rect4220_00000127033344632833009010000015075683273880132237_);stroke-width:0.7377;enable-background:new    ;}
	
		.st6{fill-rule:evenodd;clip-rule:evenodd;fill:url(#path4162_00000135675747005424959770000008044708220940282282_);stroke:url(#path4162_00000016778376013827256420000000749108736743683463_);stroke-width:0.7377;}
	.st7{fill:#1D93D1;}
	
		.st8{fill:url(#path4164_00000070095855354937374020000010186948175899083171_);stroke:#A06928;stroke-width:0.7377;stroke-linecap:round;stroke-linejoin:round;}
	
		.st9{fill:url(#path4178_00000101088443660561107640000011022242421836203667_);stroke:#A06928;stroke-width:0.7377;stroke-linecap:round;stroke-linejoin:round;}
	.st10{fill:#F7E8D0;stroke:#A06928;stroke-width:0.7377;stroke-linecap:round;stroke-linejoin:round;}
	.st11{fill:none;stroke:#F4E3CA;stroke-width:0.7377;}
	
		.st12{opacity:0.8798;fill:none;stroke:url(#path4966_00000116235917349002069510000011169426296039016369_);stroke-width:0.7377;stroke-linecap:round;stroke-linejoin:round;enable-background:new    ;}
	.st13{opacity:0.6;fill:url(#SVGID_1_);}
</style>
<rect class="st0" width="512" height="512"/>
<g id="layer1">
	<g id="g6707" transform="matrix(.015532 0 0 .015394 38.064 39.664)">
		
			<linearGradient id="rect6709_00000070107228060699358790000003471398551609033377_" gradientUnits="userSpaceOnUse" x1="460857.5625" y1="-460324.6562" x2="460857.5625" y2="-462754.875" gradientTransform="matrix(4.309198e-02 0 0 -3.032156e-02 -5667.9502 6171.5049)">
			<stop  offset="0" style="stop-color:#010101;stop-opacity:0"/>
			<stop  offset="0.5" style="stop-color:#010101"/>
			<stop  offset="1" style="stop-color:#010101;stop-opacity:0"/>
		</linearGradient>
		
			<rect id="rect6709" x="7488.8" y="20129.3" style="opacity:0.4021;fill:url(#rect6709_00000070107228060699358790000003471398551609033377_);enable-background:new    ;" width="13405" height="4786.8"/>
		
			<radialGradient id="path6711_00000085972796622084708440000015624662458338721470_" cx="618375.75" cy="-538329.5625" r="1172.186" gradientTransform="matrix(4.309198e-02 0 0 -3.032156e-02 -5667.3501 6171.5049)" gradientUnits="userSpaceOnUse">
			<stop  offset="0" style="stop-color:#010101"/>
			<stop  offset="1" style="stop-color:#010101;stop-opacity:0"/>
		</radialGradient>
		
			<path id="path6711" style="opacity:0.4021;fill:url(#path6711_00000085972796622084708440000015624662458338721470_);enable-background:new    ;" d="
			M20894.6,20129.5V24916c1429.7,9,3456.3-1072.4,3456.3-2393.6S22755.5,20129.5,20894.6,20129.5z"/>
		
			<radialGradient id="path6713_00000152956091504531050480000001267390226590129065_" cx="-269848.8125" cy="-538329.5625" r="1172.186" gradientTransform="matrix(-4.309198e-02 0 0 -3.032156e-02 -4223.7739 6171.5049)" gradientUnits="userSpaceOnUse">
			<stop  offset="0" style="stop-color:#010101"/>
			<stop  offset="1" style="stop-color:#010101;stop-opacity:0"/>
		</radialGradient>
		
			<path id="path6713" style="opacity:0.4021;fill:url(#path6713_00000152956091504531050480000001267390226590129065_);enable-background:new    ;" d="
			M7488.8,20129.5V24916c-1429.7,9-3456.3-1072.4-3456.3-2393.6S5628,20129.5,7488.8,20129.5z"/>
	</g>
	
		<linearGradient id="rect3115_00000093157929248094186620000009635168673034742968_" gradientUnits="userSpaceOnUse" x1="359.5722" y1="75.5736" x2="359.5722" y2="189.8503" gradientTransform="matrix(0.7377 0 0 -0.7377 -9.8878 418.1669)">
		<stop  offset="0" style="stop-color:#EABA6F"/>
		<stop  offset="1" style="stop-color:#B87B2A"/>
	</linearGradient>
	
		<path id="rect3115" style="fill:url(#rect3115_00000093157929248094186620000009635168673034742968_);stroke:#A06928;stroke-width:0.7377;" d="
		M155.2,224.2h200.3c9.9,0,17.9,7.9,17.9,17.7v135.3c0,9.8-8,17.7-17.9,17.7H155.2c-9.9,0-17.9-7.9-17.9-17.7V241.8
		C137.3,232.1,145.4,224.2,155.2,224.2z"/>
	
		<linearGradient id="rect4220_00000016777453404714956840000016009052998965291676_" gradientUnits="userSpaceOnUse" x1="328.7488" y1="221.5511" x2="439.4641" y2="-47.4634" gradientTransform="matrix(0.7377 0 0 -0.7377 -9.8878 418.1669)">
		<stop  offset="0" style="stop-color:#FFFFFF"/>
		<stop  offset="1" style="stop-color:#FFFFFF;stop-opacity:0.6864"/>
	</linearGradient>
	
		<path id="rect4220" style="opacity:0.481;fill:none;stroke:url(#rect4220_00000016777453404714956840000016009052998965291676_);stroke-width:0.7377;enable-background:new    ;" d="
		M154.5,231.3h201.1c5.2,0,9.5,4.2,9.5,9.5v136.6c0,5.2-4.2,9.5-9.5,9.5H154.5c-5.2,0-9.5-4.2-9.5-9.5V240.8
		C145,235.5,149.2,231.3,154.5,231.3z"/>
	
		<linearGradient id="path4162_00000101813292410089931000000007503047886124943259_" gradientUnits="userSpaceOnUse" x1="286.5018" y1="289.7943" x2="467.0729" y2="289.7943" gradientTransform="matrix(0.7377 0 0 -0.7666 -9.8878 430.1924)">
		<stop  offset="0" style="stop-color:#A36E29"/>
		<stop  offset="1" style="stop-color:#D79029"/>
	</linearGradient>
	
		<linearGradient id="path4162_00000178198291714176100990000013185278660073717428_" gradientUnits="userSpaceOnUse" x1="356.732" y1="315.698" x2="358.2434" y2="258.3245" gradientTransform="matrix(0.7377 0 0 -0.7377 -9.8878 418.1669)">
		<stop  offset="0" style="stop-color:#A06928"/>
		<stop  offset="1" style="stop-color:#A06928;stop-opacity:0"/>
	</linearGradient>
	
		<path id="path4162" style="fill-rule:evenodd;clip-rule:evenodd;fill:url(#path4162_00000101813292410089931000000007503047886124943259_);stroke:url(#path4162_00000178198291714176100990000013185278660073717428_);stroke-width:0.7377;" d="
		M147,233.5l37.3-50.3l138.7-0.7l38.5,50L147,233.5L147,233.5z"/>
	<path class="st7" d="M256,56.8c-8,19.6-12.8,32.5-21.8,51.6c5.5,5.8,12.2,12.5,23.1,20.2c-11.7-4.8-19.7-9.7-25.7-14.7
		c-11.4,23.8-29.3,57.8-65.6,123c28.5-16.5,50.6-26.6,71.3-30.5c-0.9-3.8-1.4-7.9-1.4-12.2l0-0.9c0.5-18.3,10-32.3,21.2-31.4
		c11.3,1,20,16.6,19.6,34.8c-0.1,3.4-0.5,6.7-1.1,9.8c20.4,4,42.3,14.1,70.4,30.4c-5.5-10.2-10.5-19.4-15.2-28.2
		c-7.5-5.8-15.2-13.3-31.1-21.4c10.9,2.8,18.7,6.1,24.8,9.8C276.4,107.4,272.5,95.5,256,56.8L256,56.8L256,56.8z"/>
	
		<linearGradient id="path4164_00000127732752334657637320000008300368034904722052_" gradientUnits="userSpaceOnUse" x1="364.3052" y1="163.412" x2="351.6767" y2="248.9794" gradientTransform="matrix(0.7377 0 0 -0.7276 -9.8878 414.2017)">
		<stop  offset="0" style="stop-color:#E9B96E"/>
		<stop  offset="1" style="stop-color:#F1D29F"/>
	</linearGradient>
	
		<path id="path4164" style="fill:url(#path4164_00000127732752334657637320000008300368034904722052_);stroke:#A06928;stroke-width:0.7377;stroke-linecap:round;stroke-linejoin:round;" d="
		M364.8,231.9l38.3,53.1H111.5l34.4-53.1L364.8,231.9L364.8,231.9z"/>
	
		<linearGradient id="path4178_00000036972844515751848560000008003494593196165049_" gradientUnits="userSpaceOnUse" x1="487.8046" y1="265" x2="595.6469" y2="258.9359" gradientTransform="matrix(0.7377 0 0 -0.7377 -9.8878 418.1669)">
		<stop  offset="0" style="stop-color:#DD9527"/>
		<stop  offset="1" style="stop-color:#A36E29"/>
	</linearGradient>
	
		<path id="path4178" style="fill:url(#path4178_00000036972844515751848560000008003494593196165049_);stroke:#A06928;stroke-width:0.7377;stroke-linecap:round;stroke-linejoin:round;" d="
		M324.7,182.4l34.6,51.1l66.7,32.4L366.1,200C366.1,200,324.7,182.4,324.7,182.4z"/>
	<path id="path4180" class="st10" d="M182.8,183.1l-29.3,49.6L86,265.1l59.9-65.8L182.8,183.1L182.8,183.1z"/>
	<path id="path4954" class="st11" d="M355.6,232.7l32.9,44.7H123.9l30.6-45.6L355.6,232.7L355.6,232.7z"/>
	
		<linearGradient id="path4966_00000136398058228194633350000012581257103488138395_" gradientUnits="userSpaceOnUse" x1="423.5812" y1="273.8771" x2="302.7383" y2="284.734" gradientTransform="matrix(0.7377 0 0 -0.7377 -9.8878 418.1669)">
		<stop  offset="0" style="stop-color:#FAF0E0"/>
		<stop  offset="1" style="stop-color:#F1CF99"/>
	</linearGradient>
	
		<path id="path4966" style="opacity:0.8798;fill:none;stroke:url(#path4966_00000136398058228194633350000012581257103488138395_);stroke-width:0.7377;stroke-linecap:round;stroke-linejoin:round;enable-background:new    ;" d="
		M153.5,232.3l25-42.7l151.2-0.6l28.4,43.2L153.5,232.3L153.5,232.3z"/>
</g>
<linearGradient id="SVGID_1_" gradientUnits="userSpaceOnUse" x1="256" y1="364.1903" x2="256" y2="309.4024">
	<stop  offset="0" style="stop-color:#2484C6"/>
	<stop  offset="1" style="stop-color:#2484C6;stop-opacity:0"/>
</linearGradient>
<path class="st13" d="M206.6,310.8h12.1v51.8h-12.1v-5.4c-5.3,6.2-11.8,7-15.5,7c-16,0-25.1-13.3-25.1-27.6
	c0-16.9,11.6-27.2,25.2-27.2c3.8,0,10.5,1,15.4,7.4V310.8z M178.3,336.9c0,9,5.7,16.5,14.4,16.5c7.6,0,14.6-5.6,14.6-16.4
	c0-11.3-7-16.8-14.6-16.8C184,320.2,178.3,327.6,178.3,336.9z M233.1,310.8h12.1v4.7c1.4-1.6,3.3-3.3,5-4.3c2.3-1.4,4.7-1.7,7.4-1.7
	c3,0,6.2,0.5,9.5,2.5l-4.9,11c-2.7-1.7-4.9-1.8-6.2-1.8c-2.6,0-5.2,0.4-7.5,2.8c-3.3,3.6-3.3,8.5-3.3,12v26.8h-12.1L233.1,310.8
	L233.1,310.8z M274.8,310.8h12.1v4.8c4.1-4.9,8.9-6.2,12.8-6.2c5.4,0,10.5,2.6,13.4,7.6c4.3-6.2,10.8-7.6,15.4-7.6
	c6.3,0,11.8,3,14.8,8.1c1,1.7,2.7,5.6,2.7,13v32h-12.1V334c0-5.8-0.6-8.1-1.1-9.2c-0.7-2-2.6-4.6-6.9-4.6c-3,0-5.6,1.6-7.2,3.8
	c-2.1,3-2.3,7.4-2.3,11.8v26.7h-12.1V334c0-5.8-0.6-8.1-1.1-9.2c-0.7-2-2.6-4.6-6.9-4.6c-3,0-5.6,1.6-7.2,3.8
	c-2.1,3-2.3,7.4-2.3,11.8v26.7h-12.1V310.8z"/>
</svg>
